<mxfile host="app.diagrams.net" modified="2023-12-13T01:12:32.578Z" agent="Mozilla/5.0 (Windows NT 10.0; Win64; x64) AppleWebKit/537.36 (KHTML, like Gecko) Chrome/120.0.0.0 Safari/537.36 Edg/120.0.0.0" etag="Evrd7D443XlhacNGXpDy" version="22.1.7" type="github">
  <diagram name="第 1 页" id="RmlTkaA-1jOAxN98HU_0">
    <mxGraphModel dx="1540" dy="693" grid="1" gridSize="10" guides="1" tooltips="1" connect="1" arrows="1" fold="1" page="1" pageScale="1" pageWidth="827" pageHeight="1169" math="0" shadow="0">
      <root>
        <mxCell id="0" />
        <mxCell id="1" parent="0" />
        <mxCell id="Gghx9RnaRhX2Y3jycpze-8" value="&lt;font style=&quot;font-size: 18px;&quot; face=&quot;Noto Sans Simplified Chinese&quot;&gt;3:创建特征&lt;/font&gt;" style="text;html=1;align=center;verticalAlign=middle;resizable=0;points=[];autosize=1;strokeColor=none;fillColor=none;" parent="1" vertex="1">
          <mxGeometry x="530" y="325" width="110" height="40" as="geometry" />
        </mxCell>
        <mxCell id="Gghx9RnaRhX2Y3jycpze-9" value="&lt;font style=&quot;font-size: 18px;&quot; face=&quot;Noto Sans Simplified Chinese&quot;&gt;4:返回原始名&lt;/font&gt;" style="text;html=1;align=center;verticalAlign=middle;resizable=0;points=[];autosize=1;strokeColor=none;fillColor=none;" parent="1" vertex="1">
          <mxGeometry x="530" y="403" width="130" height="40" as="geometry" />
        </mxCell>
        <mxCell id="Gghx9RnaRhX2Y3jycpze-10" value="&lt;font style=&quot;font-size: 18px;&quot; data-font-src=&quot;https://fonts.googleapis.com/css?family=Noto+Sans+Simplified+Chinese&quot; face=&quot;Noto Sans Simplified Chinese&quot;&gt;5:属性传递机制&lt;/font&gt;" style="text;html=1;align=center;verticalAlign=middle;resizable=0;points=[];autosize=1;strokeColor=none;fillColor=none;" parent="1" vertex="1">
          <mxGeometry x="525" y="485" width="150" height="40" as="geometry" />
        </mxCell>
        <mxCell id="Gghx9RnaRhX2Y3jycpze-11" value="&lt;font style=&quot;font-size: 18px;&quot; data-font-src=&quot;https://fonts.googleapis.com/css?family=Noto+Sans+Simplified+Chinese&quot; face=&quot;Noto Sans Simplified Chinese&quot;&gt;6:算法库处理并返回结果&amp;nbsp;&lt;/font&gt;" style="text;html=1;align=center;verticalAlign=middle;resizable=0;points=[];autosize=1;strokeColor=none;fillColor=none;" parent="1" vertex="1">
          <mxGeometry x="515" y="564.5" width="220" height="40" as="geometry" />
        </mxCell>
        <mxCell id="Gghx9RnaRhX2Y3jycpze-12" value="&lt;font style=&quot;font-size: 18px;&quot; face=&quot;Noto Sans Simplified Chinese&quot;&gt;7:特征参数修改，模型重建&lt;/font&gt;" style="text;html=1;align=center;verticalAlign=middle;resizable=0;points=[];autosize=1;strokeColor=none;fillColor=none;" parent="1" vertex="1">
          <mxGeometry x="510" y="645" width="240" height="40" as="geometry" />
        </mxCell>
        <mxCell id="Gghx9RnaRhX2Y3jycpze-15" value="&lt;font style=&quot;font-size: 18px;&quot; data-font-src=&quot;https://fonts.googleapis.com/css?family=Noto+Sans+Simplified+Chinese&quot; face=&quot;Noto Sans Simplified Chinese&quot;&gt;8:引用名辨识&lt;/font&gt;" style="text;html=1;align=center;verticalAlign=middle;resizable=0;points=[];autosize=1;strokeColor=none;fillColor=none;" parent="1" vertex="1">
          <mxGeometry x="530" y="725" width="130" height="40" as="geometry" />
        </mxCell>
        <mxCell id="Gghx9RnaRhX2Y3jycpze-17" value="" style="endArrow=open;endFill=1;endSize=12;html=1;rounded=0;entryX=0.5;entryY=0;entryDx=0;entryDy=0;entryPerimeter=0;" parent="1" source="Gghx9RnaRhX2Y3jycpze-30" target="DkMp5VflrlSqzRxbxcE5-5" edge="1">
          <mxGeometry width="160" relative="1" as="geometry">
            <mxPoint x="500" y="218" as="sourcePoint" />
            <mxPoint x="750" y="200" as="targetPoint" />
          </mxGeometry>
        </mxCell>
        <mxCell id="Gghx9RnaRhX2Y3jycpze-18" value="&lt;font style=&quot;font-size: 18px;&quot; data-font-src=&quot;https://fonts.googleapis.com/css?family=Noto+Sans+Simplified+Chinese&quot; face=&quot;Noto Sans Simplified Chinese&quot;&gt;1:选中拓扑元素&lt;/font&gt;" style="text;html=1;align=center;verticalAlign=middle;resizable=0;points=[];autosize=1;strokeColor=none;fillColor=none;" parent="1" vertex="1">
          <mxGeometry x="520" y="165" width="150" height="40" as="geometry" />
        </mxCell>
        <mxCell id="Gghx9RnaRhX2Y3jycpze-20" value="&lt;font style=&quot;font-size: 18px;&quot; data-font-src=&quot;https://fonts.googleapis.com/css?family=Noto+Sans+Simplified+Chinese&quot; face=&quot;Noto Sans Simplified Chinese&quot;&gt;2:返回引用名&lt;/font&gt;" style="text;html=1;align=center;verticalAlign=middle;resizable=0;points=[];autosize=1;strokeColor=none;fillColor=none;" parent="1" vertex="1">
          <mxGeometry x="525" y="245" width="130" height="40" as="geometry" />
        </mxCell>
        <mxCell id="Gghx9RnaRhX2Y3jycpze-30" value="&lt;font style=&quot;font-size: 18px;&quot; data-font-src=&quot;https://fonts.googleapis.com/css?family=Noto+Sans+Simplified+Chinese&quot; face=&quot;Noto Sans Simplified Chinese&quot;&gt;:HFMS系统&lt;/font&gt;" style="shape=umlLifeline;perimeter=lifelinePerimeter;whiteSpace=wrap;html=1;container=1;collapsible=0;recursiveResize=0;outlineConnect=0;rounded=1;shadow=0;comic=0;labelBackgroundColor=none;strokeWidth=1;fontFamily=Verdana;fontSize=12;align=center;" parent="1" vertex="1">
          <mxGeometry x="390" y="120" width="140" height="800" as="geometry" />
        </mxCell>
        <mxCell id="Gghx9RnaRhX2Y3jycpze-31" value="" style="html=1;points=[];perimeter=orthogonalPerimeter;rounded=0;shadow=0;comic=0;labelBackgroundColor=none;strokeWidth=1;fontFamily=Verdana;fontSize=12;align=center;" parent="Gghx9RnaRhX2Y3jycpze-30" vertex="1">
          <mxGeometry x="65" y="80" width="10" height="670" as="geometry" />
        </mxCell>
        <mxCell id="Gghx9RnaRhX2Y3jycpze-32" value="" style="line;strokeWidth=1;fillColor=none;align=left;verticalAlign=middle;spacingTop=-1;spacingLeft=3;spacingRight=3;rotatable=0;labelPosition=right;points=[];portConstraint=eastwest;strokeColor=inherit;" parent="Gghx9RnaRhX2Y3jycpze-30" vertex="1">
          <mxGeometry x="20" y="30" width="90" height="8" as="geometry" />
        </mxCell>
        <mxCell id="Gghx9RnaRhX2Y3jycpze-45" value="" style="endArrow=open;endFill=1;endSize=12;html=1;rounded=0;dashed=1;" parent="Gghx9RnaRhX2Y3jycpze-30" edge="1">
          <mxGeometry width="160" relative="1" as="geometry">
            <mxPoint x="360" y="320" as="sourcePoint" />
            <mxPoint x="75" y="320" as="targetPoint" />
          </mxGeometry>
        </mxCell>
        <mxCell id="Gghx9RnaRhX2Y3jycpze-42" value="" style="endArrow=open;endFill=1;endSize=12;html=1;rounded=0;dashed=1;exitX=-0.38;exitY=0.115;exitDx=0;exitDy=0;exitPerimeter=0;" parent="1" target="Gghx9RnaRhX2Y3jycpze-31" edge="1" source="DkMp5VflrlSqzRxbxcE5-5">
          <mxGeometry width="160" relative="1" as="geometry">
            <mxPoint x="770" y="281" as="sourcePoint" />
            <mxPoint x="470" y="280" as="targetPoint" />
          </mxGeometry>
        </mxCell>
        <mxCell id="Gghx9RnaRhX2Y3jycpze-43" value="" style="endArrow=open;endFill=1;endSize=12;html=1;rounded=0;entryX=0.216;entryY=0.238;entryDx=0;entryDy=0;entryPerimeter=0;exitX=0.94;exitY=0.238;exitDx=0;exitDy=0;exitPerimeter=0;" parent="1" source="Gghx9RnaRhX2Y3jycpze-31" target="DkMp5VflrlSqzRxbxcE5-5" edge="1">
          <mxGeometry width="160" relative="1" as="geometry">
            <mxPoint x="470" y="360" as="sourcePoint" />
            <mxPoint x="749.1999999999998" y="360.1300000000001" as="targetPoint" />
          </mxGeometry>
        </mxCell>
        <mxCell id="Gghx9RnaRhX2Y3jycpze-44" value="" style="endArrow=open;endFill=1;endSize=12;html=1;rounded=0;exitX=0.94;exitY=0.478;exitDx=0;exitDy=0;exitPerimeter=0;entryX=-0.082;entryY=0.476;entryDx=0;entryDy=0;entryPerimeter=0;" parent="1" source="Gghx9RnaRhX2Y3jycpze-31" edge="1" target="DkMp5VflrlSqzRxbxcE5-5">
          <mxGeometry width="160" relative="1" as="geometry">
            <mxPoint x="470" y="518.5" as="sourcePoint" />
            <mxPoint x="770" y="520" as="targetPoint" />
          </mxGeometry>
        </mxCell>
        <mxCell id="Gghx9RnaRhX2Y3jycpze-46" value="" style="endArrow=open;endFill=1;endSize=12;html=1;rounded=0;dashed=1;exitX=-0.16;exitY=0.6;exitDx=0;exitDy=0;exitPerimeter=0;entryX=0.86;entryY=0.597;entryDx=0;entryDy=0;entryPerimeter=0;" parent="1" target="Gghx9RnaRhX2Y3jycpze-31" edge="1">
          <mxGeometry width="160" relative="1" as="geometry">
            <mxPoint x="748.4000000000001" y="602" as="sourcePoint" />
            <mxPoint x="470" y="600" as="targetPoint" />
          </mxGeometry>
        </mxCell>
        <mxCell id="Gghx9RnaRhX2Y3jycpze-47" value="" style="endArrow=open;endFill=1;endSize=12;html=1;rounded=0;exitX=0.86;exitY=0.714;exitDx=0;exitDy=0;exitPerimeter=0;entryX=-0.181;entryY=0.714;entryDx=0;entryDy=0;entryPerimeter=0;" parent="1" source="Gghx9RnaRhX2Y3jycpze-31" edge="1" target="DkMp5VflrlSqzRxbxcE5-5">
          <mxGeometry width="160" relative="1" as="geometry">
            <mxPoint x="470" y="680" as="sourcePoint" />
            <mxPoint x="770" y="680" as="targetPoint" />
          </mxGeometry>
        </mxCell>
        <mxCell id="Gghx9RnaRhX2Y3jycpze-48" value="" style="endArrow=open;endFill=1;endSize=12;html=1;rounded=0;dashed=1;exitX=0;exitY=0.836;exitDx=0;exitDy=0;exitPerimeter=0;entryX=1.02;entryY=0.831;entryDx=0;entryDy=0;entryPerimeter=0;" parent="1" target="Gghx9RnaRhX2Y3jycpze-31" edge="1">
          <mxGeometry width="160" relative="1" as="geometry">
            <mxPoint x="750" y="760.1200000000001" as="sourcePoint" />
            <mxPoint x="470" y="760" as="targetPoint" />
          </mxGeometry>
        </mxCell>
        <mxCell id="DkMp5VflrlSqzRxbxcE5-4" value="&lt;font style=&quot;font-size: 18px;&quot; data-font-src=&quot;https://fonts.googleapis.com/css?family=Noto+Sans+Simplified+Chinese&quot; face=&quot;Noto Sans Simplified Chinese&quot;&gt;:拓扑元素命名与辨识算法库&lt;/font&gt;" style="shape=umlLifeline;perimeter=lifelinePerimeter;whiteSpace=wrap;html=1;container=1;collapsible=0;recursiveResize=0;outlineConnect=0;rounded=1;shadow=0;comic=0;labelBackgroundColor=none;strokeWidth=1;fontFamily=Verdana;fontSize=12;align=center;" vertex="1" parent="1">
          <mxGeometry x="640" y="120" width="240" height="800" as="geometry" />
        </mxCell>
        <mxCell id="DkMp5VflrlSqzRxbxcE5-5" value="" style="html=1;points=[];perimeter=orthogonalPerimeter;rounded=0;shadow=0;comic=0;labelBackgroundColor=none;strokeWidth=1;fontFamily=Verdana;fontSize=12;align=center;" vertex="1" parent="DkMp5VflrlSqzRxbxcE5-4">
          <mxGeometry x="115" y="80" width="10" height="670" as="geometry" />
        </mxCell>
        <mxCell id="DkMp5VflrlSqzRxbxcE5-6" value="" style="line;strokeWidth=1;fillColor=none;align=left;verticalAlign=middle;spacingTop=-1;spacingLeft=3;spacingRight=3;rotatable=0;labelPosition=right;points=[];portConstraint=eastwest;strokeColor=inherit;" vertex="1" parent="DkMp5VflrlSqzRxbxcE5-4">
          <mxGeometry x="10" y="30" width="220" height="8" as="geometry" />
        </mxCell>
      </root>
    </mxGraphModel>
  </diagram>
</mxfile>
